<?xml version="1.0" encoding="UTF-8" standalone="no"?>
<svg
   xmlns:dc="http://purl.org/dc/elements/1.1/"
   xmlns:cc="http://creativecommons.org/ns#"
   xmlns:rdf="http://www.w3.org/1999/02/22-rdf-syntax-ns#"
   xmlns:svg="http://www.w3.org/2000/svg"
   xmlns="http://www.w3.org/2000/svg"
   xmlns:sodipodi="http://sodipodi.sourceforge.net/DTD/sodipodi-0.dtd"
   xmlns:inkscape="http://www.inkscape.org/namespaces/inkscape"
   version="1.1"
   x="0px"
   y="0px"
   viewBox="0 0 100 100"
   id="svg880"
   sodipodi:docname="Factory.svg"
   width="100"
   height="100"
   inkscape:version="0.92.2 5c3e80d, 2017-08-06">
  <metadata
     id="metadata886">
    <rdf:RDF>
      <cc:Work
         rdf:about="">
        <dc:format>image/svg+xml</dc:format>
        <dc:type
           rdf:resource="http://purl.org/dc/dcmitype/StillImage" />
        <dc:title></dc:title>
      </cc:Work>
    </rdf:RDF>
  </metadata>
  <defs
     id="defs884" />
  <sodipodi:namedview
     pagecolor="#ffffff"
     bordercolor="#666666"
     borderopacity="1"
     objecttolerance="10"
     gridtolerance="10"
     guidetolerance="10"
     inkscape:pageopacity="0"
     inkscape:pageshadow="2"
     inkscape:window-width="1923"
     inkscape:window-height="968"
     id="namedview882"
     showgrid="false"
     inkscape:zoom="6.344"
     inkscape:cx="50"
     inkscape:cy="49.88966"
     inkscape:window-x="0"
     inkscape:window-y="0"
     inkscape:window-maximized="0"
     inkscape:current-layer="svg880"
     units="px"
     inkscape:snap-bbox="true"
     inkscape:snap-bbox-midpoints="true"
     showguides="true"
     inkscape:guide-bbox="true" />
  <g
     transform="matrix(0.78505149,0,0,0.82577828,11.43721,-777.35061)"
     id="g874">
    <path
       style="color:#000000;text-indent:0;text-transform:none;direction:ltr;baseline-shift:baseline;display:inline;overflow:visible;visibility:visible;fill:#000000;fill-opacity:1;stroke:none;enable-background:accumulate"
       d="m 23.999902,966.36216 v 23.28148 l 10,5.375 v -10.6562 c -0.02,-1.3704 1.6844,-2.4335 2.9062,-1.8125 l 25.0938,12.5625 v -10.75 c -0.02,-1.3704 1.6844,-2.4335 2.9062,-1.8125 l 27.999999,14 c 0.6629,0.3369 1.1047,1.069 1.0938,1.8125 v 39.99976 c -10e-5,1.0472 -0.9528,1.9999 -2.000001,2 H 7.9999018 c -1.0472,-10e-5 -1.9999,-0.9528 -2,-2 v -72.00004 c 10e-5,-1.0472 0.9528,-1.9999 2,-2 H 21.999902 c 1.0879,0.017 1.9754,1.0991 2,2 z m -4,2 H 9.9999018 v 68.00004 H 89.999901 v -36.74976 l -23.999999,-12 v 10.75 c 0,1.36 -1.6937,2.39716 -2.9062,1.78116 l -25.0938,-12.53116 v 10.75 c -0.012,1.3668 -1.73,2.39056 -2.9375,1.74996 l -14,-7.49996 c -0.6328,-0.3358 -1.0565,-1.0336 -1.0625,-1.75 z m 61,41.00004 c 1.0472,10e-5 1.9999,0.9528 2,2 v 12 c -1e-4,1.0472 -0.9528,1.9999 -2,2 h -14 c -1.0472,-10e-5 -1.9999,-0.9528 -2,-2 v -12 c 10e-5,-1.0472 0.9528,-1.9999 2,-2 z m -24,0 c 1.0472,10e-5 1.9999,0.9528 2,2 v 12 c -10e-5,1.0472 -0.9528,1.9999 -2,2 h -14 c -1.0472,-10e-5 -1.9999,-0.9528 -2,-2 v -12 c 1e-4,-1.0472 0.9528,-1.9999 2,-2 z m -24,0 c 1.0472,10e-5 1.9999,0.9528 2,2 v 12 c -10e-5,1.0472 -0.9528,1.9999 -2,2 h -14 c -1.0472,-10e-5 -1.9999,-0.9528 -2,-2 v -12 c 10e-5,-1.0472 0.9528,-1.9999 2,-2 z m 46,4 h -10 v 8 h 10 z m -24,0 h -10 v 8 h 10 z m -24,0 h -10 v 8 h 10 z"
       marker="none"
       visibility="visible"
       display="inline"
       overflow="visible"
       id="path872"
       inkscape:connector-curvature="0" />
  </g>
</svg>
